<?xml version="1.0" standalone="no"?>
<!DOCTYPE svg PUBLIC "-//W3C//DTD SVG 20010904//EN"
 "http://www.w3.org/TR/2001/REC-SVG-20010904/DTD/svg10.dtd">
<svg version="1.0" xmlns="http://www.w3.org/2000/svg"
 width="300.000000pt" height="64.000000pt" viewBox="0 0 300.000000 64.000000"
 preserveAspectRatio="xMidYMid meet">
<metadata>
Created by potrace 1.10, written by Peter Selinger 2001-2011
</metadata>
<g transform="translate(0.000000,64.000000) scale(0.100000,-0.100000)"
fill="#000000" stroke="none">
<path d="M125 610 c-4 -6 7 -10 24 -10 l31 0 0 -180 c0 -167 -1 -181 -20 -200
-22 -22 -75 -27 -86 -8 -4 6 -10 25 -13 42 -8 36 -35 46 -50 17 -15 -28 2 -69
34 -81 61 -23 148 -3 179 41 13 20 16 53 16 196 l0 173 30 0 c17 0 30 5 30 10
0 6 -35 10 -84 10 -47 0 -88 -4 -91 -10z"/>
<path d="M420 610 c0 -5 11 -10 25 -10 l25 0 -2 -192 -3 -193 -27 -3 c-16 -2
-28 -8 -28 -13 0 -5 43 -9 95 -9 57 0 95 4 95 10 0 6 -11 10 -25 10 -33 0 -45
26 -45 99 l0 61 55 0 c111 0 165 43 165 133 0 58 -26 91 -84 106 -56 14 -246
15 -246 1z m248 -45 c32 -38 31 -113 -3 -145 -23 -22 -117 -45 -130 -32 -3 3
-5 52 -5 110 l0 105 58 -6 c45 -5 62 -12 80 -32z"/>
<path d="M840 610 c0 -5 11 -10 25 -10 l25 0 -2 -192 c-3 -192 -3 -193 -25
-196 -47 -7 -21 -22 37 -22 33 0 60 4 60 10 0 6 -9 10 -20 10 -28 0 -31 23
-28 200 l3 155 80 -188 c44 -103 82 -187 86 -187 3 0 39 83 80 185 l74 185 3
-161 c3 -168 -2 -189 -39 -189 -11 0 -19 -4 -19 -10 0 -6 35 -10 85 -10 47 0
85 4 85 9 0 5 -10 11 -22 13 -23 3 -23 4 -26 196 l-2 192 25 0 c14 0 25 5 25
10 0 6 -26 10 -57 10 l-58 0 -54 -131 c-29 -72 -58 -146 -64 -165 -10 -31 -27
-47 -27 -24 0 5 -30 80 -66 165 l-67 155 -58 0 c-33 0 -59 -4 -59 -10z"/>
<path d="M2260 495 c-10 -25 -34 -33 -45 -15 -3 5 -24 14 -45 20 -75 20 -149
-19 -167 -88 -10 -42 14 -102 49 -116 l31 -13 -37 -13 c-40 -13 -60 -41 -51
-69 11 -35 36 -45 132 -51 77 -5 98 -10 109 -25 19 -26 18 -32 -10 -60 -56
-56 -210 -36 -191 25 3 9 -2 23 -11 31 -14 11 -18 11 -30 -6 -20 -27 -18 -42
9 -69 48 -48 190 -45 239 5 22 22 28 37 28 72 0 65 -20 79 -131 87 -49 4 -94
11 -100 17 -17 17 15 40 68 48 100 15 154 71 138 145 -6 27 -4 30 19 30 28 0
46 23 39 51 -7 27 -32 23 -43 -6z m-86 -25 c14 -14 19 -111 8 -141 -7 -17 -20
-28 -37 -31 -46 -9 -64 1 -76 45 -21 80 15 155 69 142 15 -3 31 -10 36 -15z"/>
<path d="M1470 493 c-50 -19 -82 -77 -82 -153 0 -99 52 -160 137 -160 84 0
145 67 145 158 0 104 -51 163 -140 161 -25 0 -52 -3 -60 -6z m112 -30 c35 -40
32 -209 -3 -244 -23 -23 -77 -25 -105 -5 -16 12 -20 29 -22 113 -3 88 -2 101
18 126 26 33 87 38 112 10z"/>
<path d="M1704 491 c-13 -14 0 -22 26 -16 l30 7 0 -120 c0 -66 -3 -127 -6
-136 -3 -9 -17 -16 -30 -16 -13 0 -24 -6 -24 -12 0 -10 25 -13 90 -13 65 0 90
3 90 13 0 6 -11 12 -24 12 -31 0 -36 15 -36 107 0 115 44 171 95 123 27 -26
55 -21 55 9 0 24 -36 51 -69 51 -14 0 -37 -14 -57 -36 l-34 -35 0 29 c0 29 -2
30 -51 34 -28 1 -53 1 -55 -1z"/>
<path d="M2385 491 c-31 -13 -47 -37 -43 -63 5 -35 39 -30 51 7 12 37 23 45
65 45 36 0 52 -25 52 -79 0 -26 -4 -29 -46 -35 -126 -17 -183 -106 -107 -166
34 -26 73 -25 115 4 33 22 35 23 46 5 27 -42 102 -29 115 20 6 24 -8 29 -17 6
-7 -20 -32 -19 -40 1 -3 9 -6 62 -6 118 0 132 -5 139 -96 143 -38 2 -78 -1
-89 -6z m123 -193 c-3 -49 -6 -54 -36 -69 -41 -21 -70 -14 -78 18 -9 35 11 72
49 88 60 26 68 22 65 -37z"/>
<path d="M2650 482 c0 -8 8 -10 25 -6 l25 6 0 -117 c0 -117 -9 -155 -35 -155
-8 0 -15 -4 -15 -10 0 -6 32 -10 75 -10 71 0 99 11 55 23 -18 5 -20 14 -20
104 0 91 2 101 23 121 26 24 66 29 85 10 8 -8 12 -49 12 -120 0 -99 -2 -108
-21 -118 -31 -17 -18 -22 60 -23 73 -2 88 7 51 31 -18 11 -20 23 -20 118 0
103 -1 106 -29 135 -16 16 -39 29 -51 29 -31 0 -89 -27 -96 -45 -9 -23 -24
-18 -24 9 0 22 -5 24 -50 28 -36 2 -50 -1 -50 -10z"/>
<path d="M302 238 c-16 -16 -15 -33 3 -48 21 -18 55 -3 55 25 0 32 -35 46 -58
23z"/>
<path d="M691 231 c-7 -13 -6 -23 3 -36 17 -24 50 -15 54 14 6 39 -39 56 -57
22z"/>
</g>
</svg>
